<svg width="52" height="50" viewBox="0 0 52 50" fill="none" xmlns="http://www.w3.org/2000/svg">
<g id="icon-team" clip-path="url(#clip0_13_348)">
<g id="Group">
<path id="Vector" d="M41.8435 25.2712C40.099 25.2712 38.7789 25.7899 37.6945 26.8978C36.2093 28.4066 35.8322 31.4947 36.8223 33.8992C37.7181 36.068 39.5568 37.2939 41.8435 37.2939C44.1301 37.2939 45.9689 36.068 46.8647 33.8992C47.8784 31.4947 47.5012 28.4066 45.9925 26.8978C44.8845 25.7899 43.5644 25.2712 41.8435 25.2712ZM39.0618 28.2651C39.7926 27.5343 40.6176 27.2043 41.8199 27.2043C43.0222 27.2043 43.8708 27.5343 44.578 28.2651C45.521 29.2316 45.7332 31.4711 45.0259 33.1449C44.6016 34.135 43.7058 35.3372 41.8199 35.3372C39.9104 35.3372 39.0146 34.135 38.6139 33.1449C37.9067 31.4711 38.1188 29.2316 39.0618 28.2651Z" fill="white"/>
<path id="Vector_2" d="M10.0896 37.2939C12.3762 37.2939 14.215 36.068 15.1108 33.8992C16.1245 31.4947 15.7473 28.4066 14.2386 26.8978C13.1306 25.7899 11.834 25.2712 10.0896 25.2712C8.34511 25.2712 7.02498 25.7899 5.94059 26.8978C4.45544 28.4066 4.07826 31.4947 5.06835 33.8992C5.96416 36.0445 7.80291 37.2939 10.0896 37.2939ZM7.30786 28.2651C8.03865 27.5343 8.86373 27.2043 10.066 27.2043C11.2683 27.2043 12.1169 27.5343 12.8241 28.2651C13.7671 29.2316 13.9792 31.4711 13.272 33.1449C12.8477 34.135 11.9519 35.3372 10.066 35.3372C8.15652 35.3372 7.26072 34.135 6.85996 33.1449C6.15275 31.4711 6.36491 29.2316 7.30786 28.2651Z" fill="white"/>
<path id="Vector_3" d="M32.9797 13.5079L36.0207 16.0067L35.0542 19.8256C34.9599 20.1792 35.1014 20.5329 35.3842 20.745C35.5257 20.8629 35.7143 20.91 35.8793 20.91C36.0443 20.91 36.2093 20.8629 36.3508 20.7686L39.6747 18.6705L42.9986 20.7686C43.305 20.9572 43.6822 20.9336 43.9651 20.745C44.248 20.5329 44.3894 20.1792 44.2951 19.8256L43.305 16.0067L46.3225 13.4843C46.6054 13.2486 46.6997 12.8949 46.5818 12.5649C46.4639 12.2349 46.181 11.9991 45.8274 11.9756L41.9142 11.7398L40.4526 8.0859C40.3112 7.75587 40.0047 7.5437 39.6511 7.5437C39.2975 7.5437 38.991 7.75587 38.8496 8.0859L37.4116 11.7398L33.4748 11.9991C33.1212 12.0227 32.8147 12.2585 32.7204 12.5885C32.6025 12.9185 32.6968 13.2957 32.9797 13.5079ZM38.0481 13.4136C38.3781 13.39 38.661 13.1778 38.8024 12.8714L39.6511 10.7262L40.4998 12.8714C40.6176 13.1778 40.9241 13.39 41.2541 13.4136L43.5643 13.555L41.7963 15.0402C41.537 15.2523 41.4191 15.6059 41.5134 15.9124L42.0792 18.1519L40.1226 16.9261C39.8397 16.7611 39.4861 16.7611 39.2032 16.9261L37.2466 18.1519L37.8123 15.9124C37.8831 15.5824 37.7888 15.2523 37.5295 15.0402L35.7379 13.5786L38.0481 13.4136Z" fill="white"/>
<path id="Vector_4" d="M44.1066 37.954H39.5804C39.1796 37.954 38.7789 37.9776 38.3545 38.0483C36.9401 36.351 35.0071 35.0544 32.9326 34.3944C32.4847 34.2529 31.9896 34.4415 31.7775 34.8659L28.5243 40.9007L27.9585 38.8734C27.8878 38.6141 27.9349 38.3784 28.0764 38.1426L30.033 35.3845C30.2452 35.078 30.2687 34.7008 30.1037 34.3708C29.9387 34.0408 29.6087 33.8286 29.2315 33.8286H22.6308C22.2537 33.8286 21.9236 34.0408 21.7586 34.3708C21.5936 34.7008 21.6172 35.078 21.8293 35.3845L23.8095 38.1426C23.9745 38.3548 23.9981 38.5905 23.9274 38.8498L23.3616 40.8772L20.1084 34.8187C19.8963 34.3944 19.4012 34.2058 18.9533 34.3472C16.8553 35.0073 14.9458 36.3039 13.5314 38.0012C13.1306 37.9305 12.7298 37.9069 12.3055 37.9069H7.8265C3.51249 37.954 0 41.7023 0 46.2991V47.1478C0 48.7272 1.27298 50.0002 2.85243 50.0002H49.057C50.6365 50.0002 51.9095 48.7272 51.9095 47.1478V46.2991C51.9095 41.7023 48.397 37.954 44.1066 37.954ZM7.8265 39.9107H12.3055C11.3861 41.5844 10.9147 43.4939 10.9147 45.4033V48.02H2.85243C2.35738 48.02 1.95662 47.6193 1.95662 47.1242V46.2756C1.95662 42.7631 4.59689 39.9107 7.8265 39.9107ZM34.2291 44.1068C33.6869 44.1068 33.2626 44.5547 33.2626 45.0733V48.02H26.8977L33.0976 36.516C36.728 38.0012 39.0618 41.4665 39.0618 45.4033V48.02H35.2192V45.0733C35.2192 44.5547 34.7713 44.1068 34.2291 44.1068ZM25.8369 39.392C26.0726 38.5669 25.9076 37.7183 25.4125 37.0111L24.5403 35.8088H27.3456L26.4734 37.0111C25.9783 37.7183 25.8133 38.5669 26.049 39.392L27.157 43.376L25.9312 45.6627L24.7289 43.3996L25.8369 39.392ZM17.6803 44.1068C17.1381 44.1068 16.7138 44.5547 16.7138 45.0733V48.02H12.8477V45.4033C12.8477 41.4665 15.1815 38.0012 18.8119 36.516L25.0118 48.02H18.6469V45.0733C18.6469 44.5547 18.2225 44.1068 17.6803 44.1068ZM39.604 39.9107H44.083C47.3126 39.9107 49.9529 42.7631 49.9529 46.2991V47.1478C49.9529 47.6429 49.5521 48.0436 49.057 48.0436H41.0184V45.4269C41.0184 43.4939 40.5233 41.5844 39.604 39.9107Z" fill="white"/>
<path id="Vector_5" d="M4.95048 14.6394L7.9915 17.1382L7.02497 20.9571C6.93068 21.3107 7.07212 21.6643 7.35501 21.8765C7.49645 21.9944 7.68504 22.0415 7.85006 22.0415C8.01507 22.0415 8.18009 21.9944 8.32153 21.9001L11.6454 19.802L14.9693 21.9001C15.2758 22.0887 15.653 22.0651 15.9359 21.8765C16.2188 21.6643 16.3602 21.3107 16.2659 20.9571L15.2994 17.1382L18.2697 14.6158C18.5526 14.38 18.6469 14.0264 18.529 13.6964C18.4111 13.3664 18.1282 13.1306 17.7746 13.1071L13.8614 12.8477L12.3998 9.19381C12.2584 8.86378 11.9519 8.65161 11.5983 8.65161C11.2447 8.65161 10.9382 8.86378 10.7968 9.19381L9.35878 12.8477L5.44553 13.1071C5.09192 13.1306 4.78547 13.3664 4.69117 13.6964C4.5733 14.05 4.6676 14.4036 4.95048 14.6394ZM10.0188 14.5451C10.3489 14.5215 10.6318 14.3093 10.7732 14.0029L11.6219 11.8576L12.4705 14.0029C12.5884 14.3093 12.8948 14.5215 13.2249 14.5451L15.5351 14.6865L13.7671 16.1716C13.5078 16.3838 13.3899 16.7374 13.4842 17.0439L14.05 19.2834L12.0933 18.0576C11.8105 17.869 11.4568 17.869 11.174 18.0576L9.19376 19.2834L9.75953 17.0439C9.83026 16.7138 9.73596 16.3838 9.47665 16.1716L7.68504 14.6865L10.0188 14.5451Z" fill="white"/>
<path id="Vector_6" d="M25.9547 16.9968C23.5502 16.9968 21.735 17.704 20.2263 19.2363C18.1754 21.3108 17.6568 25.5777 19.0712 28.9016C20.3206 31.8955 22.7723 33.5456 25.9547 33.5456C29.1372 33.5456 31.5653 31.8955 32.8383 28.9016C34.2291 25.5541 33.7341 21.3108 31.6832 19.2128C30.1744 17.704 28.3593 16.9968 25.9547 16.9968ZM25.9547 31.6126C22.7958 31.6126 21.4286 29.4438 20.8864 28.1708C19.7784 25.5541 20.132 22.1595 21.6407 20.6272C22.7723 19.4721 24.0924 18.977 25.9547 18.977C27.8171 18.977 29.1372 19.4956 30.2687 20.6272C31.7775 22.1595 32.1075 25.5541 31.0231 28.1708C30.4809 29.4438 29.1136 31.6126 25.9547 31.6126Z" fill="white"/>
<path id="Vector_7" d="M18.6469 5.96428L21.6643 8.48667L20.6978 12.3056C20.6035 12.6592 20.7449 13.0128 21.0278 13.225C21.1693 13.3429 21.3579 13.39 21.5229 13.39C21.6879 13.39 21.8529 13.3429 21.9943 13.2486L25.3182 11.1505L28.6422 13.2486C28.925 13.4372 29.3258 13.4136 29.6087 13.225C29.8916 13.0128 30.033 12.6592 29.9387 12.3056L28.9486 8.48667L31.9661 5.98785C32.2489 5.75211 32.3432 5.3985 32.2254 5.06847C32.1075 4.73844 31.8246 4.5027 31.471 4.47913L27.5578 4.21982L26.0962 0.565879C25.9547 0.235846 25.6483 0.0236816 25.2947 0.0236816C24.9411 0.0236816 24.6346 0.235846 24.4932 0.565879L23.0316 4.21982L19.0948 4.47913C18.7412 4.5027 18.4347 4.73844 18.3404 5.06847C18.2697 5.37493 18.364 5.75211 18.6469 5.96428ZM23.7152 5.86998C24.0453 5.84641 24.3281 5.63424 24.4696 5.32778L25.3182 3.18257L26.1669 5.32778C26.2848 5.63424 26.5912 5.84641 26.9213 5.86998L29.2315 6.01142L27.4635 7.49657C27.2042 7.70874 27.0863 8.06234 27.1806 8.3688L27.7463 10.6083L25.7897 9.38247C25.6483 9.28818 25.4833 9.24103 25.3182 9.24103C25.1532 9.24103 24.9882 9.28818 24.8468 9.38247L22.8901 10.6083L23.4559 8.3688C23.5266 8.03877 23.4323 7.70874 23.173 7.49657L21.405 6.01142L23.7152 5.86998Z" fill="white"/>
</g>
</g>
<defs>
<clipPath id="clip0_13_348">
<rect width="51.9095" height="50" fill="white"/>
</clipPath>
</defs>
</svg>
