<svg width="45" height="50" viewBox="0 0 45 50" fill="none" xmlns="http://www.w3.org/2000/svg">
<g id="icon-cs" clip-path="url(#clip0_13_390)">
<g id="Group">
<g id="Group_2">
<path id="Vector" d="M33.1918 38.6614C32.6423 38.6614 32.2178 39.1109 32.2178 39.6354C32.2178 40.1849 32.6673 40.6094 33.1918 40.6094C33.7163 40.6094 34.1658 40.1599 34.1658 39.6354C34.1658 39.1109 33.7412 38.6614 33.1918 38.6614Z" fill="white"/>
</g>
</g>
<g id="Group_3">
<g id="Group_4">
<path id="Vector_2" d="M35.6144 35.5145L30.969 33.966L29.2957 30.6444C30.7942 29.1209 31.8432 27.0979 32.1928 24.975L32.3926 23.7263H34.1658C35.7892 23.7263 37.0879 22.4026 37.0879 20.8042V14.6354C37.1129 6.56843 30.5445 0 22.4525 0C14.3606 0 7.81718 6.54346 7.81718 14.6354V20.7792C7.81718 22.0529 8.64136 23.1269 9.76523 23.5515V24.7003C9.76523 26.3237 11.0889 27.6224 12.6873 27.6224H13.5365C13.961 28.5465 14.5105 29.3956 15.1848 30.1698C15.3347 30.3197 15.4595 30.4945 15.6094 30.6444L13.961 33.966L9.31568 35.5145C3.92108 37.3127 0 42.982 0 49.026C0 49.5754 0.449551 50 0.974026 50H43.9311C44.4805 50 44.9051 49.5505 44.9051 49.026C44.9051 42.982 41.009 37.3127 35.6144 35.5145ZM35.1399 20.8042C35.1399 21.3536 34.6903 21.7782 34.1658 21.7782H32.6673C32.9171 19.8551 33.0919 17.8072 33.1419 15.7842C33.1419 15.7343 33.1419 15.6843 33.1419 15.6094H35.1149V20.8042H35.1399ZM10.7393 21.7782C10.1898 21.7782 9.76523 21.3287 9.76523 20.8042V15.6344H11.7383C11.7383 15.7343 11.7383 15.8342 11.7383 15.9341C11.8132 17.8821 11.963 19.8801 12.2128 21.7782H10.7393ZM12.6873 25.6743C12.1379 25.6743 11.7133 25.2248 11.7133 24.7003V23.7263H12.5125L12.7123 24.975C12.7622 25.1998 12.8122 25.4496 12.8621 25.6743H12.6873ZM11.7133 13.6613H9.79021C10.2897 7.11788 15.7343 1.94805 22.4525 1.94805C29.1209 1.94805 34.6154 7.11788 35.1149 13.6613H33.1918C33.1169 8.26673 28.7213 3.8961 23.3267 3.8961H21.5784C16.1838 3.8961 11.7882 8.26673 11.7133 13.6613ZM21.5784 5.86913H23.3267C27.6973 5.86913 31.2438 9.44056 31.2438 13.8112C31.2438 14.1109 31.2438 14.3856 31.2438 14.6354L30.02 14.4605C26.6983 13.986 23.5764 12.4126 21.2038 10.04C21.029 9.86514 20.7792 9.76523 20.5045 9.76523C17.8821 9.76523 15.3596 10.964 13.7113 12.987C14.1109 8.99101 17.4825 5.86913 21.5784 5.86913ZM14.8851 25.6743C14.3856 24.051 13.8362 19.2557 13.7113 16.2088L15.035 14.4605C16.2338 12.8372 18.1319 11.8382 20.1299 11.7383C22.7522 14.2358 26.1489 15.8841 29.7453 16.4086L31.1938 16.6084C31.0939 18.6563 30.8941 20.7043 30.6194 22.5774C30.5195 23.1768 30.4695 23.5764 30.2697 24.6503C29.7453 27.7473 27.4476 30.5445 24.3756 31.3187C23.1269 31.6434 21.8032 31.6434 20.5295 31.3187C18.6314 30.8442 16.8831 29.5205 15.7343 27.6224H17.7323C18.1319 28.7712 19.2308 29.5704 20.5045 29.5704H22.4525C24.0759 29.5704 25.3746 28.2717 25.3746 26.6484C25.3746 25.025 24.051 23.7263 22.4525 23.7263H20.5045C19.2058 23.7263 18.1319 24.5754 17.7323 25.6743H14.8851ZM20.4296 33.2917C21.1039 33.4416 21.7782 33.5165 22.4525 33.5165C22.977 33.5165 23.5265 33.4665 24.051 33.3916L22.3277 35.2148L20.4296 33.2917ZM20.979 36.6134L17.8821 39.8851C17.033 38.2617 16.3087 36.5634 15.6843 34.8152L16.8581 32.4925L20.979 36.6134ZM27.8721 32.1678L29.1958 34.8152C28.5964 36.5634 27.8721 38.2617 26.998 39.8851L23.6763 36.5634L27.8721 32.1678ZM19.5305 26.6484C19.5305 26.0989 19.98 25.6743 20.5045 25.6743H22.4525C23.002 25.6743 23.4266 26.1239 23.4266 26.6484C23.4266 27.1978 22.977 27.6224 22.4525 27.6224H20.5045C19.955 27.6224 19.5305 27.1978 19.5305 26.6484ZM1.998 48.0519C2.37263 43.2068 5.59441 38.8112 9.94006 37.3626L14.0609 35.989C14.8102 38.0619 15.7592 40.0849 16.8332 42.008C17.6324 43.4066 18.5315 44.7802 19.5055 46.0789L20.7043 48.002H1.998V48.0519ZM22.4525 47.1778L21.1289 45.0549C21.1039 45.03 21.1039 45.005 21.0789 44.98C20.2797 43.9311 19.5554 42.8322 18.8811 41.6833L22.3526 38.012L26.024 41.6833C25.3496 42.8322 24.6004 43.9311 23.8262 44.98C23.7762 45.03 23.8512 44.9301 22.4525 47.1778ZM24.2258 48.0519L25.4246 46.1289C26.3986 44.8302 27.2977 43.4316 28.1219 42.008C28.1219 42.008 28.1219 41.983 28.1469 41.983C29.2208 40.0849 30.1449 38.0619 30.8941 36.014L35.015 37.3876C39.3357 38.8362 42.5574 43.2318 42.957 48.0769L24.2258 48.0519Z" fill="white"/>
</g>
</g>
<g id="Group_5">
<g id="Group_6">
<path id="Vector_3" d="M39.985 44.0809C39.3357 42.7822 38.3866 41.6084 37.2128 40.7343C36.7882 40.4096 36.1638 40.4845 35.8392 40.9091C35.5145 41.3337 35.5894 41.9581 36.014 42.2827C36.9381 42.982 37.7123 43.9311 38.2118 44.9551C38.4615 45.4296 39.036 45.6294 39.5105 45.4046C40.035 45.1549 40.2348 44.5804 39.985 44.0809Z" fill="white"/>
</g>
</g>
</g>
<defs>
<clipPath id="clip0_13_390">
<rect width="44.9051" height="50" fill="white"/>
</clipPath>
</defs>
</svg>
