<svg width="50" height="50" viewBox="0 0 50 50" fill="none" xmlns="http://www.w3.org/2000/svg">
<g id="icon-company" clip-path="url(#clip0_13_362)">
<g id="Group">
<path id="Vector" d="M48.3483 37.4941V30.1321V28.3388V7.50354C48.3483 7.03162 47.9707 6.67768 47.5224 6.67768H46.6966V4.1765C46.6966 3.70458 46.319 3.35064 45.8707 3.35064H41.6942V0H40.0189V3.32704H35.8424C35.3705 3.32704 35.0165 3.70458 35.0165 4.1529V6.65408H34.1907C33.7187 6.65408 33.3648 7.03162 33.3648 7.47994V12.5059H29.1883C28.9759 12.5059 28.7636 12.6003 28.5984 12.7419L21.9207 19.4195C21.7555 19.5847 21.6848 19.7971 21.6848 20.0094V24.8702L17.2015 21.0477C16.8948 20.7881 16.4228 20.7881 16.1161 21.0477L10.2879 26.05C10.0991 26.2152 10.0047 26.4512 10.0047 26.6871V30.2265L7.10241 28.4804C6.84285 28.3152 6.51251 28.3152 6.25295 28.4804L2.07645 30.958C1.81689 31.0996 1.67532 31.3827 1.67532 31.6659V37.4941H0V39.1694H4.38886C12.2227 50.5427 27.7961 53.4214 39.1694 45.6111C41.6942 43.8886 43.865 41.6942 45.6111 39.1694H50V37.4941H48.3483ZM36.6682 5.00236H44.9976V6.67768H36.6682V5.00236ZM23.3365 20.3398L29.5186 14.1576H33.3412V37.4941H29.1647V34.1671H27.4894V37.4941H23.3365V20.3398ZM34.1907 39.1694C33.4592 40.6324 32.6097 42.0245 31.6423 43.3459H18.3577C17.3903 42.0245 16.5408 40.6324 15.8093 39.1694H34.1907ZM11.6564 27.0647L16.6588 22.7702L21.6612 27.0647V37.5177H17.5083V34.1907H15.8329V37.5177H11.6564V27.0647ZM5.82822 37.4941H3.32704V32.1378L6.65408 30.1321L9.98112 32.1378V37.4941H7.50354V34.1671H5.82822V37.4941ZM6.46531 39.1694H13.9689C14.6531 40.6088 15.4318 42.0009 16.3285 43.3459H10.571C9.01369 42.1189 7.64512 40.7268 6.46531 39.1694ZM12.9778 44.9976H17.5319C18.2869 45.9887 19.1128 46.9089 19.9858 47.782C17.5083 47.2629 15.1487 46.319 12.9778 44.9976ZM27.0647 48.2539C26.3804 48.3247 25.6961 48.3483 25.0118 48.3483C24.3275 48.3483 23.6432 48.3247 22.9589 48.2539C21.7791 47.2629 20.6937 46.1774 19.6791 45.0212H30.3445C29.3299 46.1774 28.2445 47.2629 27.0647 48.2539ZM30.0378 47.8056C30.9108 46.9325 31.7367 45.9887 32.4917 45.0212H37.0458C34.8749 46.319 32.4917 47.2629 30.0378 47.8056ZM39.4526 43.3459H33.6951C34.5918 42.0245 35.3705 40.6324 36.0547 39.1694H43.5583C42.3549 40.7268 40.9863 42.1189 39.4526 43.3459ZM46.673 28.3388V30.1557V37.5177H41.6706V34.1907H39.9953V37.5177H34.9929V8.3294H46.6494V28.3388H46.673Z" fill="white"/>
<path id="Vector_2" d="M15.0071 28.3389H13.3318V32.5154H15.0071V28.3389Z" fill="white"/>
<path id="Vector_3" d="M20.0094 28.3389H18.3341V32.5154H20.0094V28.3389Z" fill="white"/>
<path id="Vector_4" d="M26.6871 28.3389H25.0118V32.5154H26.6871V28.3389Z" fill="white"/>
<path id="Vector_5" d="M31.6895 28.3389H30.0142V32.5154H31.6895V28.3389Z" fill="white"/>
<path id="Vector_6" d="M26.6871 22.5107H25.0118V26.6872H26.6871V22.5107Z" fill="white"/>
<path id="Vector_7" d="M31.6895 22.5107H30.0142V26.6872H31.6895V22.5107Z" fill="white"/>
<path id="Vector_8" d="M38.3436 22.5107H36.6682V26.6872H38.3436V22.5107Z" fill="white"/>
<path id="Vector_9" d="M41.6706 22.5107H39.9953V26.6872H41.6706V22.5107Z" fill="white"/>
<path id="Vector_10" d="M38.3436 16.6587H36.6682V20.8352H38.3436V16.6587Z" fill="white"/>
<path id="Vector_11" d="M41.6706 16.6587H39.9953V20.8352H41.6706V16.6587Z" fill="white"/>
<path id="Vector_12" d="M38.3436 10.8306H36.6682V15.0071H38.3436V10.8306Z" fill="white"/>
<path id="Vector_13" d="M41.6706 10.8306H39.9953V15.0071H41.6706V10.8306Z" fill="white"/>
<path id="Vector_14" d="M45.0212 22.5107H43.3459V26.6872H45.0212V22.5107Z" fill="white"/>
<path id="Vector_15" d="M38.3436 28.3389H36.6682V32.5154H38.3436V28.3389Z" fill="white"/>
<path id="Vector_16" d="M41.6706 28.3389H39.9953V32.5154H41.6706V28.3389Z" fill="white"/>
<path id="Vector_17" d="M45.0212 28.3389H43.3459V32.5154H45.0212V28.3389Z" fill="white"/>
<path id="Vector_18" d="M45.0212 16.6587H43.3459V20.8352H45.0212V16.6587Z" fill="white"/>
<path id="Vector_19" d="M45.0212 10.8306H43.3459V15.0071H45.0212V10.8306Z" fill="white"/>
<path id="Vector_20" d="M31.6895 16.6587H30.0142V20.8352H31.6895V16.6587Z" fill="white"/>
<path id="Vector_21" d="M0.495517 26.5927C0.802265 26.7343 1.15621 26.6635 1.39217 26.4276L13.3554 15.2666L17.7914 18.9712C18.1218 19.2544 18.6409 19.2308 18.9476 18.9004L28.4568 8.58896L30.3681 9.86314C30.7456 10.1227 31.2647 10.0047 31.5243 9.62718C31.5951 9.5092 31.6423 9.39122 31.6659 9.24965L32.4917 0.920246C32.5389 0.471921 32.2086 0.0471921 31.7367 0C31.6187 0 31.5243 0 31.4063 0.023596L23.1005 2.52478C22.6522 2.66635 22.4162 3.11468 22.5342 3.563C22.5814 3.75177 22.6994 3.91694 22.8646 4.01133L24.5635 5.14394L18.2633 12.1756L13.8745 8.51817C13.5441 8.25861 13.0722 8.25861 12.7655 8.54177L6.93723 13.9925L0.259556 20.2218C0.0943842 20.387 0 20.5993 0 20.8353V25.8377C0 26.168 0.188768 26.4748 0.495517 26.5927ZM1.67532 21.1892L7.40916 15.8329L13.379 10.2643L17.815 13.9689C18.1689 14.252 18.6645 14.2284 18.9712 13.8745L26.4748 5.54507C26.7815 5.21472 26.7579 4.67202 26.404 4.36527C26.3804 4.34167 26.3332 4.31808 26.3096 4.29448L25.295 3.61019L30.7456 1.98207L30.1793 7.69231L28.8344 6.79566C28.504 6.5597 28.0321 6.63049 27.7489 6.91364L18.2633 17.1779L13.8745 13.5205C13.5441 13.261 13.0722 13.261 12.7655 13.5441L1.67532 23.9028V21.1892Z" fill="white"/>
</g>
</g>
<defs>
<clipPath id="clip0_13_362">
<rect width="50" height="50" fill="white"/>
</clipPath>
</defs>
</svg>
