<svg width="50" height="45" viewBox="0 0 50 45" fill="none" xmlns="http://www.w3.org/2000/svg">
<g id="icon 2" clip-path="url(#clip0_16_515)">
<path id="Vector" d="M30.8112 32.0968C30.9719 32.2576 31.1786 32.3494 31.3852 32.3494C31.5689 32.3494 31.7755 32.2805 31.9362 32.0968L38.1811 25.8519C38.5026 25.5305 38.5026 25.0254 38.1811 24.704L31.9362 18.4591C31.5689 18.0917 31.0867 18.1836 30.8112 18.4591C30.5357 18.7346 30.4439 19.2167 30.8112 19.5841L36.5051 25.278L30.8112 30.9718C30.4439 31.3162 30.5357 31.7984 30.8112 32.0968Z" fill="white"/>
<path id="Vector_2" d="M22.2015 32.556C22.2934 32.6019 22.4082 32.6019 22.5 32.6019C22.5918 32.6019 22.7066 32.579 22.7985 32.556C23.0051 32.4642 23.1658 32.3035 23.2347 32.0739L27.9643 18.9871C28.148 18.505 27.8495 18.0917 27.4821 17.954C27.1148 17.8162 26.6327 17.931 26.449 18.4361L21.7194 31.5229C21.6275 31.7524 21.6505 31.982 21.7653 32.1657C21.8571 32.3494 22.0179 32.4871 22.2015 32.556Z" fill="white"/>
<path id="Vector_3" d="M17.7475 32.097C17.9082 32.2577 18.0918 32.3496 18.2985 32.3496C18.3674 32.3496 18.4362 32.3496 18.5051 32.3266C18.8036 32.2577 19.0332 32.0052 19.102 31.7297C19.1709 31.4542 19.102 31.1787 18.8954 30.972L13.2015 25.2782L18.8954 19.5843C19.102 19.3776 19.1939 19.1021 19.102 18.8266C19.0332 18.5282 18.7806 18.2986 18.5051 18.2297C18.2296 18.1608 17.9541 18.2297 17.7475 18.4363L11.4796 24.7042C11.1582 25.0256 11.1582 25.5307 11.4796 25.8521L17.7475 32.097Z" fill="white"/>
<path id="Vector_4" d="M24.8418 0C20.5025 0 16.9668 3.53571 16.9668 7.875C16.9668 12.2143 20.5025 15.75 24.8418 15.75C29.1811 15.75 32.7168 12.2143 32.7168 7.875C32.7168 3.53571 29.1811 0 24.8418 0ZM24.8418 1.46939C28.3775 1.46939 31.2474 4.33929 31.2474 7.875C31.2474 11.4107 28.3775 14.2806 24.8418 14.2806C21.3061 14.2806 18.4362 11.4107 18.4362 7.875C18.4362 4.36225 21.3061 1.49235 24.8418 1.46939Z" fill="white"/>
<g id="Group">
<path id="Vector_5" d="M48.8801 35.4489H46.5153V14.4183C46.5153 12.1224 44.6556 10.2627 42.3597 10.2627H32.3495C32.1658 10.8367 31.9133 11.3647 31.6378 11.8698H42.3597C43.7602 11.8698 44.9082 13.0178 44.9082 14.4183V35.4489H4.79847V14.4183C4.79847 13.0178 5.94643 11.8698 7.34694 11.8698H18.0689C17.7704 11.3647 17.5179 10.8137 17.3342 10.2627H7.32398C5.02806 10.2627 3.16837 12.1224 3.16837 14.4183V35.4489H0.803571C0.367347 35.4489 0 35.8163 0 36.2525V40.2244C0 42.8418 2.1352 44.9999 4.77551 44.9999H44.9082C47.5485 44.9999 49.6837 42.8647 49.6837 40.2244V36.2525C49.6837 35.7933 49.3163 35.4489 48.8801 35.4489ZM17.7704 37.3545C17.7704 37.2627 17.7704 37.1709 17.7704 37.0561H31.8903V38.227C31.8903 38.8698 31.3622 39.3979 30.7194 39.3979H18.9643C18.6429 39.3979 18.3673 39.2831 18.1378 39.0535C17.7474 38.6632 17.7474 38.0892 17.7704 37.3545ZM48.0765 40.2244C48.0765 41.9693 46.6531 43.3928 44.9082 43.3928H4.77551C3.03061 43.3928 1.60714 41.9693 1.60714 40.2244V37.0561H16.1633V38.227C16.1633 39.7652 17.426 41.028 18.9643 41.028H30.7194C31.4541 41.028 32.1658 40.7295 32.6939 40.2015C33.5663 39.329 33.5663 38.2729 33.5204 37.0561H48.0765V40.2244Z" fill="white"/>
</g>
<path id="Vector_6" d="M25.7602 7.8749L28.6071 5.02796C28.8597 4.77541 28.8597 4.33918 28.6071 4.08663C28.3546 3.83408 27.9184 3.83408 27.6658 4.08663L24.8189 6.93357L21.949 4.08663C21.6964 3.83408 21.2602 3.83408 21.0077 4.08663C20.7551 4.33918 20.7551 4.77541 21.0077 5.02796L23.8775 7.8749L21.0077 10.7448C20.7551 10.9973 20.7551 11.4336 21.0077 11.6861C21.2602 11.9387 21.6964 11.9387 21.949 11.6861L24.7959 8.83918L27.6429 11.6861C27.8954 11.9387 28.3316 11.9387 28.5842 11.6861C28.8367 11.4336 28.8367 10.9973 28.5842 10.7448L25.7602 7.8749Z" fill="white"/>
</g>
<defs>
<clipPath id="clip0_16_515">
<rect width="49.6837" height="45" fill="white"/>
</clipPath>
</defs>
</svg>
