<svg width="50" height="45" viewBox="0 0 50 45" fill="none" xmlns="http://www.w3.org/2000/svg">
<g id="Frame" clip-path="url(#clip0_16_563)">
<g id="Group">
<path id="Vector" d="M49.9874 12.8539C49.9874 12.8312 49.9874 12.7858 49.9874 12.7632C49.9874 12.7405 49.9874 12.7178 49.9874 12.6952C49.9874 12.6725 49.9647 12.6498 49.9647 12.6272C49.9647 12.6045 49.9421 12.5818 49.9421 12.5591C49.9421 12.5591 49.9421 12.5591 49.9421 12.5365L44.2065 0.430678C44.0932 0.181308 43.8438 0.0226178 43.5491 0.0226178H11.7204C11.6297 -5.22714e-05 11.5164 -5.22714e-05 11.4257 0.0226178H6.43829C6.16625 0.0226178 5.91688 0.181308 5.80353 0.430678L0.0680101 12.5591C0.02267 12.6498 0 12.7632 0 12.8765V15.5743C0 17.6599 1.33753 19.4282 3.21914 20.0629V44.2745C3.21914 44.6599 3.53652 44.9773 3.92191 44.9773H9.74811H19.2695H46.0428C46.4282 44.9773 46.7456 44.6599 46.7456 44.2745V20.0629C48.6045 19.4282 49.9647 17.6599 49.9647 15.5743L49.9874 12.8539ZM48.1511 12.1511H41.7582L39.3098 1.45083H43.0957L48.1511 12.1511ZM40.466 15.5743C40.466 17.4105 38.9698 18.9067 37.1335 18.9067C35.2972 18.9067 33.801 17.4105 33.801 15.5743V13.5793H40.466V15.5743ZM16.1864 15.5743C16.1864 17.4105 14.6902 18.9067 12.8539 18.9067C11.0176 18.9067 9.52141 17.4105 9.52141 15.5743V13.5793H16.1864V15.5743ZM18.3627 1.45083L16.4584 12.1511H9.70277L12.1285 1.45083H18.3627ZM24.2796 1.45083V12.1511H17.9093L19.8136 1.45083H24.2796ZM30.1738 1.45083L32.0781 12.1511H25.7078V1.45083H30.1738ZM37.8589 1.45083L40.2846 12.1511H33.529L31.6247 1.45083H37.8589ZM17.6146 13.5793H24.2796V15.5743C24.2796 15.5969 24.2796 15.6423 24.2796 15.6649C24.2569 17.5012 22.738 18.9748 20.9018 18.9521C19.0655 18.9294 17.5919 17.4105 17.6146 15.5743V13.5793ZM25.7078 13.5793H32.3728V15.5743C32.3728 15.5969 32.3728 15.6423 32.3728 15.6649C32.3501 17.5012 30.8312 18.9748 28.995 18.9521C27.1587 18.9294 25.6851 17.4105 25.7078 15.5743V13.5793ZM6.86902 1.45083H10.6549L8.22922 12.1511H1.83627L6.86902 1.45083ZM1.42821 15.5743V13.5793H8.0932V15.5743C8.0932 15.5969 8.0932 15.6423 8.0932 15.6649C8.07053 17.5012 6.55164 18.9748 4.71536 18.9521C4.57934 18.9521 4.42065 18.9294 4.28463 18.9067C4.17128 18.8387 4.05793 18.8161 3.92191 18.8161C3.89924 18.8161 3.87657 18.8161 3.8539 18.8161C2.42569 18.4307 1.40554 17.1158 1.42821 15.5743ZM10.4736 43.5717V32.146H18.5667V43.5717H10.4736ZM45.34 43.5717H19.995V31.4433C19.995 31.0579 19.6776 30.7405 19.2922 30.7405H9.74811C9.36272 30.7405 9.04534 31.0579 9.04534 31.4433V43.5717H4.64736V20.335C4.6927 20.335 4.71536 20.335 4.7607 20.335C6.46096 20.335 7.95718 19.4282 8.79597 18.068C9.63476 19.4282 11.131 20.335 12.8312 20.335C14.5542 20.335 16.0277 19.4282 16.8665 18.068C17.7053 19.4282 19.2015 20.335 20.9018 20.335C22.6247 20.335 24.0982 19.4282 24.937 18.068C25.7758 19.4282 27.272 20.335 28.9723 20.335C30.6725 20.335 32.1688 19.4282 33.0076 18.068C33.8463 19.4282 35.3426 20.335 37.0428 20.335C38.7657 20.335 40.2393 19.4282 41.0781 18.068C41.9169 19.4282 43.4131 20.335 45.1133 20.335C45.1587 20.335 45.1814 20.335 45.2267 20.335V43.5717H45.34ZM48.5592 15.5743C48.5592 15.5969 48.5592 15.6423 48.5592 15.6649C48.5365 17.1612 47.5164 18.4307 46.1335 18.8161C46.1108 18.8161 46.0882 18.8161 46.0428 18.8161C45.9068 18.8161 45.7934 18.8614 45.6801 18.9067C45.4987 18.9294 45.34 18.9521 45.1587 18.9521C43.3224 18.9294 41.8489 17.4105 41.8715 15.5743V13.5793H48.5365V15.5743H48.5592Z" fill="white"/>
<path id="Vector_2" d="M41.0327 34.9799H40.33V26.5693C40.33 25.9572 39.8312 25.4585 39.2191 25.4585H25.9572C25.3451 25.4585 24.8463 25.9572 24.8463 26.5693V34.9799H24.1436C23.7582 34.9799 23.4408 35.2973 23.4408 35.6827C23.4408 36.0681 23.7582 36.3854 24.1436 36.3854H25.5718H39.6045H41.0327C41.4181 36.3854 41.7355 36.0681 41.7355 35.6827C41.7355 35.2973 41.4181 34.9799 41.0327 34.9799ZM26.2745 34.9799V26.9094H38.8791V34.9799H26.2745Z" fill="white"/>
</g>
</g>
<defs>
<clipPath id="clip0_16_563">
<rect width="49.9874" height="45" fill="white"/>
</clipPath>
</defs>
</svg>
