<svg width="50" height="50" viewBox="0 0 50 50" fill="none" xmlns="http://www.w3.org/2000/svg">
<g id="Frame" clip-path="url(#clip0_16_558)">
<g id="Outer_Lines_1_">
<path id="Vector" d="M-8.63569e-07 24.1412C-0.0235303 24.5883 0.141176 25.0118 0.470587 25.3412C0.799999 25.6707 1.22353 25.8589 1.69412 25.8589H4.18823C5.08235 25.8589 5.81176 25.1295 5.85882 24.2354C5.92941 22.5177 6.23529 20.8001 6.77647 19.1765L20.1882 26.4001C20.4941 27.4589 21.1294 28.3765 22.0235 29.0354L9.43529 47.5765C9.10588 48.0471 9.08235 48.6824 9.34118 49.1765C9.6 49.6707 10.1176 50.0001 10.7059 50.0001H39.2471C39.8118 50.0001 40.3294 49.6942 40.6118 49.1765C40.8941 48.6589 40.8471 48.0471 40.5176 47.5765L27.9294 29.0354C30.1412 27.4118 30.6118 24.2824 28.9882 22.0707C27.6 20.1883 25.0588 19.5295 22.9176 20.4942L7.97647 16.2118C12.8471 6.8236 24.4 3.15301 33.7882 8.0236C39.9059 11.1765 43.8353 17.3883 44.1176 24.2589C44.1647 25.153 44.8941 25.8589 45.7882 25.8589H48.2824C48.7294 25.8589 49.1765 25.6707 49.5059 25.3412C49.8118 25.0118 49.9765 24.5883 49.9765 24.1412C49.4823 10.353 37.9294 -0.446986 24.1412 0.0236019C10.9882 0.447131 0.447058 11.0118 -8.63569e-07 24.1412ZM4.16471 24.1883L1.64706 24.2118C1.83529 18.5883 4.04706 13.2236 7.88235 9.10596L9.69412 10.9177C8.32941 12.4001 7.17647 14.0707 6.28235 15.8824C5.48235 16.0236 4.94118 16.8001 5.08235 17.6236C5.12941 17.8354 5.2 18.0236 5.31765 18.2118C4.63529 20.1412 4.25882 22.1412 4.16471 24.1883ZM10.9176 48.3295L24.9647 27.6236L39.0118 48.3295H10.9176ZM28.3059 25.0118C28.3059 26.0471 27.8118 27.0118 27.0118 27.6471L26.2588 26.5412C25.7882 25.8354 24.8235 25.6471 24.1176 26.1177C23.9529 26.2354 23.8118 26.3765 23.6941 26.5412L22.9412 27.6471C21.4824 26.5177 21.2235 24.4236 22.3529 22.9883C23.4824 21.5295 25.5765 21.2707 27.0118 22.4001C27.8353 23.0118 28.3059 24.0001 28.3059 25.0118ZM21.2235 21.7177C20.5647 22.4707 20.1412 23.4118 20 24.4001L8 17.953L21.2235 21.7177ZM10.8706 9.74125L9.05882 7.92948C13.1765 4.11772 18.5412 1.90595 24.1412 1.74125V4.23537C19.2 4.44713 14.4941 6.40007 10.8706 9.74125ZM25.8118 4.23537V1.74125C31.4118 1.92948 36.7765 4.11772 40.8941 7.95301L39.1294 9.71772C35.4588 6.35301 30.7529 4.4236 25.8118 4.23537ZM45.7647 24.1648C45.5765 19.2236 43.6235 14.5177 40.2824 10.8707L42.0706 9.08243C45.9059 13.2001 48.0941 18.5412 48.2824 24.1648H45.7647Z" fill="white"/>
<path id="Vector_2" d="M24.1412 32.5177V41.6706C24.1412 42.1412 24.5176 42.4942 24.9647 42.4942C25.4353 42.4942 25.7882 42.1177 25.7882 41.6706V32.5177C25.7882 32.0471 25.4118 31.6942 24.9647 31.6942C24.5176 31.6706 24.1412 32.0471 24.1412 32.5177Z" fill="white"/>
<path id="Vector_3" d="M24.9647 44.1648C24.4941 44.1648 24.1412 44.5413 24.1412 44.9883V45.8119C24.1412 46.2824 24.5176 46.6354 24.9647 46.6354C25.4353 46.6354 25.7882 46.2589 25.7882 45.8119V44.9883C25.8118 44.5413 25.4353 44.1648 24.9647 44.1648Z" fill="white"/>
</g>
</g>
<defs>
<clipPath id="clip0_16_558">
<rect width="49.9529" height="50" fill="white"/>
</clipPath>
</defs>
</svg>
