<svg width="50" height="50" viewBox="0 0 50 50" fill="none" xmlns="http://www.w3.org/2000/svg">
<g id="icon 1" clip-path="url(#clip0_16_511)">
<path id="Vector" d="M1.11872 21.5982L3.0137 22.2374C2.89954 23.1507 2.83105 24.0868 2.83105 25C2.83105 25.9361 2.89954 26.8493 3.0137 27.7854L1.11872 28.4018C0.27397 28.6758 -0.182651 29.589 0.0913216 30.4338L1.59817 35.0228C1.87214 35.8676 2.78539 36.347 3.63013 36.0731L5.52511 35.4566C6.41552 37.0776 7.51141 38.5845 8.78995 39.9543L7.62557 41.5753C7.10045 42.2831 7.26027 43.3105 7.96803 43.8356L11.8721 46.6438C12.5799 47.169 13.5845 47.0091 14.1324 46.3014C14.1324 46.3014 14.1324 46.3014 14.1324 46.2785L15.3196 44.6575C16.9863 45.4566 18.7671 46.0274 20.5936 46.3699V48.3562C20.5936 49.2466 21.3242 49.9772 22.2146 49.9772H27.0548C27.9452 49.9772 28.6758 49.2466 28.6758 48.3562V46.3699C29.3151 46.2557 29.9543 46.0959 30.5479 45.9132C32.7626 49.7717 37.6941 51.1187 41.5525 48.8813C45.411 46.6438 46.758 41.7352 44.5205 37.8767C44.1781 37.2603 43.7443 36.7123 43.242 36.21C43.4018 35.9361 43.5616 35.6621 43.7215 35.3881L45.6164 36.0046C46.4612 36.2785 47.3744 35.8219 47.6484 34.9543L49.1552 30.3653C49.4292 29.5205 48.9726 28.6073 48.1278 28.3333L46.2329 27.6941C46.347 26.7808 46.4155 25.8447 46.4155 24.9315C46.4155 23.9954 46.347 23.0822 46.2329 22.1461L48.1278 21.5297C48.9726 21.2557 49.4292 20.3425 49.1552 19.4977L47.6484 14.9087C47.3744 14.0639 46.4612 13.5845 45.6164 13.8584L43.7215 14.4749C42.831 12.8539 41.7352 11.347 40.4566 9.97717L41.621 8.35616C42.1461 7.6484 41.9863 6.62101 41.2785 6.09589L37.3744 3.26484C37.032 3.0137 36.5982 2.89954 36.1644 2.96804C35.7534 3.03653 35.3653 3.26484 35.1142 3.60731L33.9269 5.22831C32.2603 4.42922 30.4794 3.85845 28.653 3.51598V1.621C28.653 0.730594 27.9224 0 27.032 0H22.1918C21.3014 0 20.5708 0.730594 20.5708 1.621V3.60731C18.7443 3.94977 16.9635 4.52055 15.2968 5.31963L14.1324 3.72146C13.6073 2.99087 12.6027 2.83105 11.895 3.35616C11.895 3.35616 11.895 3.35616 11.8721 3.35616L7.9452 6.18721C7.23744 6.71233 7.07762 7.7169 7.60274 8.44749L8.76712 10.0685C7.48858 11.4155 6.39269 12.9224 5.50228 14.5662L3.6073 13.9269C2.76255 13.653 1.84931 14.1096 1.57534 14.9772L0.0684905 19.5662C-0.205482 20.411 0.27397 21.3242 1.11872 21.5982ZM43.9498 41.9406C43.9498 45.5023 41.0502 48.4018 37.4886 48.4018C33.9269 48.4018 31.0502 45.5023 31.0502 41.9406C31.0502 38.379 33.9498 35.4795 37.5114 35.4795C41.0731 35.4795 43.9498 38.379 43.9498 41.9406ZM29.6119 40.3196C21.1415 43.0822 12.032 38.4475 9.2694 29.9772C6.50685 21.5069 11.1416 12.3973 19.6119 9.6347C28.0822 6.87215 37.1918 11.5069 39.9543 19.9772C40.4794 21.5982 40.7534 23.2877 40.7534 24.9772C40.7534 28.1507 39.8173 31.2329 38.0594 33.8813C37.8767 33.8813 37.7169 33.8584 37.5342 33.8584C33.6758 33.8813 30.3653 36.5753 29.6119 40.3196ZM3.10502 15.4566L5 16.0731C5.73059 16.3014 6.52968 15.9817 6.91781 15.2968C7.73972 13.79 8.74429 12.3973 9.9315 11.1416C10.4794 10.5708 10.5251 9.7032 10.0685 9.08676L8.90411 7.51142L12.8082 4.65753L13.9726 6.27854C14.4292 6.89498 15.274 7.10046 15.9817 6.78082C17.5342 6.05023 19.1552 5.50228 20.8447 5.18265C21.621 5.04566 22.1689 4.38356 22.1689 3.60731V1.621H27.0091V3.60731C27.0091 4.38356 27.5799 5.04566 28.3333 5.18265C30.0228 5.50228 31.6667 6.0274 33.2192 6.78082C33.9269 7.10046 34.7489 6.89498 35.2055 6.27854L36.3699 4.65753L40.274 7.48858L39.1096 9.08676C38.653 9.72603 38.6986 10.5936 39.2466 11.1644C40.4338 12.4201 41.4384 13.8128 42.2603 15.3196C42.6484 15.9817 43.4475 16.3014 44.1781 16.0731L46.0731 15.4566L47.5799 20.0457L45.6849 20.6621C44.9315 20.8904 44.4749 21.6438 44.589 22.4201C44.8173 24.1096 44.8173 25.8447 44.589 27.5342C44.4749 28.3105 44.9543 29.0411 45.6849 29.2694L47.5799 29.8858L46.0731 34.4977L44.1781 33.8813C43.4475 33.653 42.6484 33.9726 42.2603 34.6575C42.1689 34.8402 42.0548 35.0228 41.9406 35.2055C41.2557 34.7489 40.5251 34.4064 39.726 34.1781C41.4155 31.4155 42.3059 28.2192 42.3059 24.9772C42.3288 15.1598 34.3836 7.19178 24.5662 7.19178C14.7489 7.16895 6.78082 15.1142 6.78082 24.9315C6.75799 34.7489 14.7032 42.7169 24.5205 42.7169C26.1644 42.7169 27.831 42.4886 29.4064 42.032C29.4292 42.8539 29.5434 43.653 29.8174 44.4292C29.3379 44.5662 28.8356 44.6804 28.3105 44.7717C27.5571 44.9087 26.9863 45.5708 26.9863 46.347V48.3333H22.1918V46.347C22.1918 45.5708 21.621 44.9087 20.8676 44.7717C19.1781 44.4521 17.5342 43.9269 15.9817 43.1735C15.274 42.8539 14.4521 43.0594 13.9954 43.6758L12.831 45.2968L8.90411 42.5114L10.0685 40.9132C10.5251 40.274 10.4794 39.4064 9.9315 38.8356C8.74429 37.5799 7.73972 36.1872 6.91781 34.6804C6.52968 34.0183 5.75342 33.6986 5 33.9269L3.10502 34.5434L1.59817 29.9543L3.49315 29.3379C4.22374 29.0868 4.70319 28.3562 4.58904 27.5799C4.36073 25.8904 4.36073 24.1553 4.58904 22.4658C4.70319 21.6895 4.22374 20.9589 3.49315 20.7306L1.59817 20.1142L3.10502 15.4566Z" fill="white"/>
<path id="Vector_2" d="M33.8584 22.8996L35.4566 22.7626L35.0685 18.4932C35.0228 18.0594 34.6347 17.717 34.2009 17.7626C34.1553 17.7626 34.1324 17.7626 34.0868 17.7855L29.9087 18.7444L30.274 20.3197L32.3744 19.8403L27.3744 26.6439L22.3288 21.5754C22.1689 21.4156 21.9406 21.3243 21.6895 21.3471C21.4612 21.3699 21.2329 21.4841 21.0959 21.6667L14.2466 30.959L15.5479 31.9179L21.8265 23.3791L26.8721 28.4247C27.032 28.5846 27.2603 28.6759 27.5114 28.653C27.7397 28.6302 27.968 28.5161 28.105 28.3334L33.6758 20.7763L33.8584 22.8996Z" fill="white"/>
<path id="Vector_3" d="M41.5297 41.2328L35.8904 38.0136C35.5023 37.7853 35.0228 37.9223 34.7945 38.3104C34.726 38.4246 34.6804 38.5844 34.6804 38.7214V45.1826C34.6804 45.6392 35.0457 45.9817 35.4794 45.9817C35.6164 45.9817 35.7534 45.936 35.8904 45.8675L41.5297 42.6483C41.9178 42.42 42.0548 41.9406 41.8265 41.5524C41.758 41.4154 41.6667 41.3013 41.5297 41.2328ZM36.3014 43.767V40.0912L39.5205 41.9177L36.3014 43.767Z" fill="white"/>
</g>
<defs>
<clipPath id="clip0_16_511">
<rect width="49.2009" height="50" fill="white"/>
</clipPath>
</defs>
</svg>
