<svg width="52" height="50" viewBox="0 0 52 50" fill="none" xmlns="http://www.w3.org/2000/svg">
<g id="Frame" clip-path="url(#clip0_16_535)">
<g id="surface1_1_">
<path id="Vector" d="M4.17661 44.9881H29.6897L28.3532 43.3174H4.17661C2.79236 43.3174 1.67064 42.1957 1.67064 40.8115V4.17661C1.67064 2.79236 2.79236 1.67064 4.17661 1.67064H40.8353C42.2196 1.67064 43.3413 2.79236 43.3413 4.17661V26.42L45.0119 27.0883V4.17661C45.0119 1.88544 43.1504 0.0238663 40.8353 0H4.17661C1.86158 0 0 1.86158 0 4.17661V40.8353C0 43.1265 1.86158 44.9881 4.17661 44.9881Z" fill="white"/>
<path id="Vector_2" d="M3.34128 3.34131H5.01192V5.01195H3.34128V3.34131Z" fill="white"/>
<path id="Vector_3" d="M6.65872 3.34131H8.32937V5.01195H6.65872V3.34131Z" fill="white"/>
<path id="Vector_4" d="M10 3.34131H11.6706V5.01195H10V3.34131Z" fill="white"/>
<path id="Vector_5" d="M3.34128 6.65869H41.6706V8.32934H3.34128V6.65869Z" fill="white"/>
<path id="Vector_6" d="M11.9093 10.2388L9.7852 12.3629C7.99523 11.1696 5.60859 11.5514 4.24821 13.1982C2.88783 14.8688 3.00716 17.2793 4.53461 18.8068C6.06205 20.3342 8.47255 20.4536 10.1432 19.0932C11.8138 17.7328 12.1718 15.3462 10.9785 13.5562L13.1026 11.4321L11.9093 10.2388ZM7.49403 18.3295C6.10978 18.3295 4.98807 17.2077 4.98807 15.8235C4.98807 14.4392 6.10978 13.3175 7.49403 13.3175C7.87589 13.3175 8.23389 13.413 8.56802 13.5562L6.89737 15.2268L8.06683 16.3963L9.73747 14.7256C9.90453 15.0598 9.97613 15.4178 9.97613 15.7996C10 17.2077 8.87828 18.3295 7.49403 18.3295Z" fill="white"/>
<path id="Vector_7" d="M14.1766 13.3413H28.3293V15.012H14.1766V13.3413Z" fill="white"/>
<path id="Vector_8" d="M14.1766 16.6587H20V18.3293H14.1766V16.6587Z" fill="white"/>
<path id="Vector_9" d="M21.6707 16.6587H33.3413V18.3293H21.6707V16.6587Z" fill="white"/>
<path id="Vector_10" d="M30 13.3413H38.3294V15.012H30V13.3413Z" fill="white"/>
<path id="Vector_11" d="M11.9093 20.2388L9.7852 22.3629C7.99523 21.1696 5.60859 21.5514 4.24821 23.1982C2.88783 24.8688 3.00716 27.2793 4.53461 28.8068C6.06205 30.3342 8.47255 30.4536 10.1432 29.0932C11.8138 27.7328 12.1718 25.3462 10.9785 23.5562L13.1026 21.4321L11.9093 20.2388ZM7.49403 28.3295C6.10978 28.3295 4.98807 27.2077 4.98807 25.8235C4.98807 24.4392 6.10978 23.3175 7.49403 23.3175C7.87589 23.3175 8.23389 23.413 8.56802 23.5562L6.89737 25.2268L8.06683 26.3963L9.73747 24.7256C9.90453 25.0598 9.97613 25.4178 9.97613 25.7996C10 27.2077 8.87828 28.3295 7.49403 28.3295Z" fill="white"/>
<path id="Vector_12" d="M14.1766 23.3413H28.3293V25.012H14.1766V23.3413Z" fill="white"/>
<path id="Vector_13" d="M14.1766 26.6587H20V28.3293H14.1766V26.6587Z" fill="white"/>
<path id="Vector_14" d="M21.6707 26.6587H28.3294V28.3293H21.6707V26.6587Z" fill="white"/>
<path id="Vector_15" d="M30 23.3413H33.3413V25.012H30V23.3413Z" fill="white"/>
<path id="Vector_16" d="M11.9093 30.2388L9.7852 32.3629C7.99523 31.1696 5.60859 31.5514 4.24821 33.1982C2.88783 34.8688 3.00716 37.2793 4.53461 38.8068C6.06205 40.3342 8.47255 40.4536 10.1432 39.0932C11.8138 37.7328 12.1718 35.3462 10.9785 33.5562L13.1026 31.4321L11.9093 30.2388ZM7.49403 38.3295C6.10978 38.3295 4.98807 37.2077 4.98807 35.8235C4.98807 34.4392 6.10978 33.3175 7.49403 33.3175C7.87589 33.3175 8.23389 33.413 8.56802 33.5562L6.89737 35.2268L8.06683 36.3963L9.73747 34.7256C9.90453 35.0598 9.97613 35.4178 9.97613 35.7996C10 37.2077 8.87828 38.3295 7.49403 38.3295Z" fill="white"/>
<path id="Vector_17" d="M14.1766 33.3174H25.0119V34.988H14.1766V33.3174Z" fill="white"/>
<path id="Vector_18" d="M14.1766 36.6587H20V38.3293H14.1766V36.6587Z" fill="white"/>
<path id="Vector_19" d="M21.6707 36.6587H25.0119V38.3293H21.6707V36.6587Z" fill="white"/>
<path id="Vector_20" d="M39.1647 50C46.0621 50 51.6707 44.4152 51.6707 37.494C51.6707 30.5966 46.0859 24.988 39.1647 24.988C32.2435 24.988 26.6587 30.5728 26.6587 37.494C26.6826 44.3914 32.2673 49.9761 39.1647 50ZM39.1647 26.6587C45.1551 26.6587 50 31.5036 50 37.494C50 43.4845 45.1551 48.3293 39.1647 48.3293C33.1742 48.3293 28.3294 43.4845 28.3294 37.494C28.3294 31.5036 33.1742 26.6587 39.1647 26.6587Z" fill="white"/>
<path id="Vector_21" d="M32.1003 37.494L34.2482 42.0286C34.3676 42.2673 34.6062 42.4344 34.8687 42.4821C34.9165 42.4821 34.9642 42.4821 34.9881 42.4821C35.2029 42.4821 35.4177 42.3866 35.5847 42.2434L45.5847 32.2434L44.4153 31.074L35.2267 40.2625L34.2005 38.1861C33.8186 37.3986 32.864 37.1122 32.1003 37.494Z" fill="white"/>
</g>
</g>
<defs>
<clipPath id="clip0_16_535">
<rect width="51.6706" height="50" fill="white"/>
</clipPath>
</defs>
</svg>
