<svg width="51" height="36" viewBox="0 0 51 36" fill="none" xmlns="http://www.w3.org/2000/svg">
<g id="icon3" clip-path="url(#clip0_16_523)">
<path id="Vector" d="M47.7967 0H2.72052C1.21954 0 0 1.21954 0 2.72052V33.3029C0 34.8039 1.21954 36.0235 2.72052 36.0235H47.7967C49.2977 36.0235 50.5173 34.8039 50.5173 33.3029V2.72052C50.4938 1.21954 49.2743 0 47.7967 0ZM2.72052 1.47752H47.7967C48.4769 1.47752 49.0397 2.04039 49.0397 2.72052V4.92508H1.47752V2.69707C1.47752 2.04039 2.04039 1.47752 2.72052 1.47752ZM47.7967 34.5225H2.72052C2.04039 34.5225 1.47752 33.9596 1.47752 33.2795V6.40261H49.0163V33.2795C49.0163 33.9596 48.4769 34.5225 47.7967 34.5225Z" fill="white"/>
<path id="Vector_2" d="M15.5257 22.6787H5.67557C4.71401 22.6787 3.94006 23.4527 3.94006 24.4142V26.3842C3.94006 26.736 4.05733 27.0878 4.24495 27.3693C4.03387 27.6507 3.94006 28.0025 3.94006 28.3543V30.3243C3.94006 31.2859 4.71401 32.0598 5.67557 32.0598H15.5492C16.5107 32.0598 17.2847 31.2859 17.2847 30.3243V28.3543C17.2847 28.0025 17.1674 27.6507 16.9798 27.3693C17.1909 27.0878 17.2847 26.736 17.2847 26.3842V24.4142C17.2612 23.4527 16.4873 22.6787 15.5257 22.6787ZM5.41759 24.4142C5.41759 24.2735 5.53485 24.1562 5.67557 24.1562H15.5492C15.6899 24.1562 15.8072 24.2735 15.8072 24.4142V26.3842C15.8072 26.525 15.6899 26.6422 15.5492 26.6422H5.67557C5.53485 26.6422 5.41759 26.525 5.41759 26.3842V24.4142ZM15.7837 30.3243C15.7837 30.465 15.6664 30.5823 15.5257 30.5823H5.67557C5.53485 30.5823 5.41759 30.465 5.41759 30.3243V28.3543C5.41759 28.2136 5.53485 28.0963 5.67557 28.0963H15.5492C15.6899 28.0963 15.8072 28.2136 15.8072 28.3543V30.3243H15.7837Z" fill="white"/>
<path id="Vector_3" d="M40.3857 3.94019H41.8632C42.2619 3.94019 42.6137 3.61185 42.6137 3.1897C42.6137 2.76755 42.2853 2.43921 41.8632 2.43921H40.3857C39.987 2.43921 39.6352 2.76755 39.6352 3.1897C39.6352 3.61185 39.987 3.94019 40.3857 3.94019Z" fill="white"/>
<path id="Vector_4" d="M45.3107 3.94019H46.7883C47.187 3.94019 47.5388 3.61185 47.5388 3.1897C47.5388 2.76755 47.2104 2.43921 46.7883 2.43921H45.3107C44.912 2.43921 44.5603 2.76755 44.5603 3.1897C44.5603 3.61185 44.912 3.94019 45.3107 3.94019Z" fill="white"/>
<path id="Vector_5" d="M7.6456 19.2314C7.2469 19.2314 6.89511 19.5597 6.89511 19.9818C6.89511 20.3805 7.22345 20.7323 7.6456 20.7323H8.8886V21.4828C8.8886 21.8815 9.21693 22.2333 9.63908 22.2333C10.0612 22.2333 10.3896 21.905 10.3896 21.4828V20.7323H10.8821V21.4828C10.8821 21.8815 11.2104 22.2333 11.6326 22.2333C12.0547 22.2333 12.3831 21.905 12.3831 21.4828V20.5682C13.9309 20.0288 14.7283 18.3402 14.1889 16.7923C14.0248 16.3232 13.7433 15.9011 13.3681 15.5727C14.5876 14.4939 14.7049 12.6177 13.6261 11.3981C13.2977 11.0229 12.8756 10.7415 12.4065 10.5773V9.61572C12.4065 9.21703 12.0782 8.86523 11.656 8.86523C11.2339 8.86523 10.9055 9.19357 10.9055 9.61572V10.3662H10.413V9.61572C10.413 9.21703 10.0847 8.86523 9.66254 8.86523C9.24039 8.86523 8.91205 9.19357 8.91205 9.61572V10.3662H7.66905C7.27036 10.3662 6.91856 10.6946 6.91856 11.1167C6.91856 11.5389 7.2469 11.8672 7.66905 11.8672H8.41954V14.8222H7.66905C7.27036 14.8222 6.91856 15.1506 6.91856 15.5727C6.91856 15.9714 7.2469 16.3232 7.66905 16.3232H8.41954V19.2314H7.6456ZM9.87361 11.8437H11.3511C12.172 11.8437 12.8287 12.5004 12.8287 13.3213C12.8287 14.1421 12.172 14.7988 11.3511 14.7988H9.87361V11.8437ZM11.3511 16.2763C12.172 16.2763 12.8287 16.933 12.8287 17.7538C12.8287 18.5747 12.1485 19.2314 11.3511 19.2314H9.87361V16.2763H11.3511Z" fill="white"/>
<path id="Vector_6" d="M25.0945 8.86523H21.1309C20.7322 8.86523 20.3805 9.19357 20.3805 9.61572V15.5258C20.3805 15.9245 20.7088 16.2763 21.1309 16.2763H22.3739V18.5043C22.3739 18.903 22.7023 19.2548 23.1244 19.2548C23.5231 19.2548 23.8749 18.9265 23.8749 18.5043V16.2763H25.1179C25.5166 16.2763 25.8684 15.948 25.8684 15.5258V9.61572C25.8215 9.21703 25.4932 8.86523 25.0945 8.86523ZM24.344 14.7988H21.8814V10.3662H24.344V14.7988Z" fill="white"/>
<path id="Vector_7" d="M28.0495 22.1864H31.9896C32.3883 22.1864 32.7401 21.8581 32.7401 21.4359V16.5109C32.7401 16.1122 32.4117 15.7604 31.9896 15.7604H30.7466V12.5708C30.7466 12.1721 30.4182 11.8203 29.9961 11.8203C29.5974 11.8203 29.2456 12.1487 29.2456 12.5708V15.7838H28.0026C27.6039 15.7838 27.2521 16.1122 27.2521 16.5343V21.4594C27.299 21.8581 27.6274 22.1864 28.0495 22.1864ZM28.7765 17.2614H31.2391V20.7089H28.7765V17.2614Z" fill="white"/>
<path id="Vector_8" d="M45.8033 8.86523H41.8632C41.4645 8.86523 41.1127 9.19357 41.1127 9.61572V16.5108C41.1127 16.9095 41.441 17.2613 41.8632 17.2613H45.8033C46.202 17.2613 46.5537 16.933 46.5537 16.5108V9.61572C46.5537 9.21703 46.2254 8.86523 45.8033 8.86523ZM45.0762 15.7838H42.6137V10.3662H45.0762V15.7838Z" fill="white"/>
<path id="Vector_9" d="M37.6651 21.4593V19.2313H38.9081C39.3068 19.2313 39.6586 18.903 39.6586 18.4808V14.5408C39.6586 14.1421 39.3303 13.7903 38.9081 13.7903H34.9446C34.5459 13.7903 34.1941 14.1186 34.1941 14.5408V18.4808C34.1941 18.8795 34.5225 19.2313 34.9446 19.2313H36.1876V21.4593C36.1876 21.858 36.516 22.2098 36.9381 22.2098C37.3368 22.1864 37.6651 21.858 37.6651 21.4593ZM35.6951 15.2913H38.1576V17.7538H35.6951V15.2913Z" fill="white"/>
<path id="Vector_10" d="M44.8182 26.6189H38.9081C37.9466 26.6189 37.1726 27.3928 37.1726 28.3544V30.3244C37.1726 31.286 37.9466 32.0599 38.9081 32.0599H44.8182C45.7798 32.0599 46.5537 31.286 46.5537 30.3244V28.3544C46.5537 27.3928 45.7798 26.6423 44.8182 26.6189ZM45.0762 30.3244C45.0762 30.4652 44.959 30.5824 44.8182 30.5824H38.9081C38.7674 30.5824 38.6502 30.4652 38.6502 30.3244V28.3544C38.6502 28.2137 38.7674 28.0964 38.9081 28.0964H44.8182C44.959 28.0964 45.0762 28.2137 45.0762 28.3544V30.3244Z" fill="white"/>
<path id="Vector_11" d="M33.9831 26.6189H28.073C27.1114 26.6189 26.3375 27.3928 26.3375 28.3544V30.3244C26.3375 31.286 27.1114 32.0599 28.073 32.0599H33.9831C34.9446 32.0599 35.7186 31.286 35.7186 30.3244V28.3544C35.6951 27.3928 34.9212 26.6423 33.9831 26.6189ZM34.2176 30.3244C34.2176 30.4652 34.1003 30.5824 33.9596 30.5824H28.0495C27.9088 30.5824 27.7915 30.4652 27.7915 30.3244V28.3544C27.7915 28.2137 27.9088 28.0964 28.0495 28.0964H33.9596C34.1003 28.0964 34.2176 28.2137 34.2176 28.3544V30.3244Z" fill="white"/>
</g>
<defs>
<clipPath id="clip0_16_523">
<rect width="50.4938" height="36" fill="white"/>
</clipPath>
</defs>
</svg>
